PathFileType	4	(X/Y/Z)	/Users/visionmauri/Downloads/Videos/OAW10-top_Sports2D/OAW10-top_Sports2D_m_person00.trc
DataRate	CameraRate	NumFrames	NumMarkers	Units	OrigDataRate	OrigDataStartFrame	OrigNumFrames
25.0	25.0	10	22	m	25.0	657	1754
Frame#	Time	Hip			RHip			RKnee			RAnkle			RBigToe			RSmallToe			RHeel			LHip			LKnee			LAnkle			LBigToe			LSmallToe			LHeel			Neck			Head			Nose			RShoulder			RElbow			RWrist			LShoulder			LElbow			LWrist			
		X1	Y1	Z1	X2	Y2	Z2	X3	Y3	Z3	X4	Y4	Z4	X5	Y5	Z5	X6	Y6	Z6	X7	Y7	Z7	X8	Y8	Z8	X9	Y9	Z9	X10	Y10	Z10	X11	Y11	Z11	X12	Y12	Z12	X13	Y13	Z13	X14	Y14	Z14	X15	Y15	Z15	X16	Y16	Z16	X17	Y17	Z17	X18	Y18	Z18	X19	Y19	Z19	X20	Y20	Z20	X21	Y21	Z21	X22	Y22	Z22
657	26.294991443240157	3.1879030943397058	0.6210174785516142	0.0301	3.2092290500511114	0.5826700545391998	0.0301	3.0527666963855733	0.4507122519024577	0.129	2.917636980213029	0.3218642065139217	0.023	2.8593275196614636	0.28582965155542284	0.2179	2.8837718079191776	0.2543862588026633	0.1804	2.8913789595688764	0.30127445493892563	-0.0119	3.152329693824134	0.6453596005200554	0.0301	3.013192883119407	0.5087473035130011	0.129	2.895094165707678	0.4011477883429041	0.023	2.8683962383564747	0.3579349612096765	0.2179	2.847170125347229	0.3794836987024879	0.1804	2.8749027403222027	0.37790952226987706	-0.0119	3.415358474343387	0.8218716264675225	0.0008	3.471087647152483	0.8623151162897571	0.0655	3.428511563429645	0.8247263792723039	0.1076	3.4444669299781374	0.7332247051116927	-0.01275	3.3655865734674837	0.5974820977074609	0.0702	3.2990547962658976	0.5077784355200312	0.1076	3.3300397514542004	0.8612082422558796	-0.01275	3.1918817828114188	0.7779792591715455	0.0702	3.094686544356037	0.6998947614734224	0.1076
658	26.335014261266398	3.188433534577113	0.6247520195823842	0.0301	3.2090937734758516	0.5875588731602865	0.0301	3.055349368819057	0.4553948391795831	0.129	2.927696937630026	0.32900790664357343	0.023	2.8555474813484127	0.28309344217566584	0.2179	2.882962848972111	0.25412060126938724	0.1804	2.9008458365010275	0.3081867809508841	-0.0119	3.152774794896278	0.6479877954806749	0.0301	3.015543731610699	0.5099264109396436	0.129	2.895512929767759	0.4009510057750165	0.023	2.8664251657580326	0.35705360250658763	0.2179	2.8457939214377306	0.3777790195354656	0.1804	2.873539290825024	0.37447841820577565	-0.0119	3.4132253765563365	0.8242300104542014	0.0008	3.468371906926016	0.8625394902822554	0.0655	3.423598636138024	0.8240249428556948	0.1076	3.443495554344652	0.7378855246694745	-0.01275	3.3646643121357527	0.6027311126065289	0.0702	3.29765622755805	0.512818515948239	0.1076	3.330087957424229	0.8643411536315081	-0.01275	3.191302110039417	0.7804418245369441	0.0702	3.094659195783405	0.6996435866094133	0.1076
659	26.37503707929264	3.1907960757608405	0.6295520004786459	0.0301	3.2139573760748927	0.5956548681755675	0.0301	3.061288902244109	0.46109213565732987	0.129	2.942021242421741	0.34081807998317865	0.023	2.854017914560008	0.2813869712193099	0.2179	2.8854282598220045	0.2557304647576987	0.1804	2.9153796858957577	0.32165301341867675	-0.0119	3.1576924007390454	0.6560890455174915	0.0301	3.0189508550424997	0.5130386602222992	0.129	2.895211043070536	0.40099966703160794	0.023	2.8639603527180975	0.35776516491393195	0.2179	2.84201785633392	0.3768333593147876	0.1804	2.873344986102845	0.3735282232419483	-0.0119	3.411383422410523	0.8258882072956887	0.0008	3.4705164585597505	0.8649302400262128	0.0655	3.4197398006475783	0.8229365890930281	0.1076	3.444427293858318	0.7412821675485676	-0.01275	3.363005022096486	0.6092802543890316	0.0702	3.29111080964005	0.5175196704570424	0.1076	3.331232160335656	0.8675097467770337	-0.01275	3.1914148781628446	0.7834318797519504	0.0702	3.092899400734213	0.7002316138674991	0.1076
660	26.41505989731888	3.194575703778239	0.6357137466813827	0.0301	3.2224131392156035	0.6048713626378728	0.0301	3.0686392611195523	0.4656949195991286	0.129	2.9558405940743437	0.35362445031041917	0.023	2.8594339877968205	0.2865850107982366	0.2179	2.893999432950306	0.2632849528959445	0.1804	2.929456513859372	0.33575367610101037	-0.0119	3.1648167559396105	0.6671707988783859	0.0301	3.0219691003016544	0.5171045529298458	0.129	2.8941585388214772	0.40002399831734625	0.023	2.863205544912192	0.35864011245278016	0.2179	2.8395915729437236	0.3761113809944391	0.1804	2.873913105184377	0.3741989684790366	-0.0119	3.410559360247056	0.8261334006834836	0.0008	3.4757548107763045	0.867587422793988	0.0655	3.422092244998368	0.8182625680840658	0.1076	3.4469103876674696	0.7427056787921068	-0.01275	3.359478668483314	0.6132240741909293	0.0702	3.279099871183639	0.5197227682153225	0.1076	3.3336676208613274	0.8714228441513019	-0.01275	3.192434860733583	0.7875841143905359	0.0702	3.091288948077675	0.7036092953805686	0.1076
661	26.45508271534512	3.197170536201231	0.6403847776211691	0.0301	3.2284209019221235	0.6102236405791476	0.0301	3.0737393691389783	0.46651402261535463	0.129	2.9645028735459604	0.3616737675620213	0.023	2.871229685635335	0.29751312485721976	0.2179	2.906406719765288	0.27505685472434627	0.1804	2.936949175669656	0.3431137258124775	-0.0119	3.1686697386856757	0.6732658684713242	0.0301	3.0222153530307927	0.519313891412415	0.129	2.8933129774409405	0.39868193106739375	0.023	2.8646924477610862	0.35729949451248694	0.2179	2.840291726276546	0.37525855927512825	0.1804	2.8735973156084764	0.3739559331650722	-0.0119	3.4130322159124455	0.8247344334802814	0.0008	3.479283579531486	0.8650952434382961	0.0655	3.4322062612290414	0.8090074539779593	0.1076	3.449604179914163	0.7437110253761304	-0.01275	3.3544828026870586	0.6124364745256232	0.0702	3.265684834468445	0.5184306174748982	0.1076	3.338342048356784	0.87597632659015	-0.01275	3.193892550990601	0.7928065232553685	0.0702	3.091422120553722	0.7085616425184775	0.1076
662	26.495105533371362	3.1979563172221366	0.6422549554371719	0.0301	3.229258157524433	0.6110173917354411	0.0301	3.0766933345493537	0.4656100118013247	0.129	2.967753417045038	0.36339369643840846	0.023	2.8828200560716453	0.3053891364012505	0.2179	2.9159704541106333	0.28353205511657076	0.1804	2.938343142572596	0.34362821061427534	-0.0119	3.1684092773434767	0.6734414470049929	0.0301	3.0212723746537518	0.5202859187888377	0.129	2.892752860019333	0.398142632698919	0.023	2.8668354891206196	0.35441072115460304	0.2179	2.8417734652395743	0.3754997687651107	0.1804	2.872330531831009	0.3725890619793308	-0.0119	3.4181338278975315	0.8240832149550325	0.0008	3.4812833706500546	0.86176219587982	0.0655	3.442949426241573	0.8046834972573239	0.1076	3.451978431121786	0.7460164205705017	-0.01275	3.3490303838117943	0.6110032309692623	0.0702	3.2547287278568113	0.5165345428832593	0.1076	3.3435789793320594	0.8802098677420396	-0.01275	3.1953264987432104	0.798980297388048	0.0702	3.092526451566825	0.7141330687051349	0.1076
663	26.535128351397603	3.1989961080408547	0.6433484910979625	0.0301	3.2280332569887435	0.6107314752214043	0.0301	3.0804672181832777	0.46768585643163585	0.129	2.967864404824283	0.3611029550515965	0.023	2.8913617917765464	0.30589039173266275	0.2179	2.9205702136988365	0.28494502745340766	0.1804	2.938745466609206	0.3411520045374794	-0.0119	3.1679216319344463	0.6729637980185673	0.0301	3.022020784475143	0.5224409413061287	0.129	2.892235786875161	0.39877605794590704	0.023	2.867246951136278	0.352018645625979	0.2179	2.842200111965558	0.3764388588868865	0.1804	2.8716735116793215	0.3726159835091584	-0.0119	3.4218788963053344	0.826518624880905	0.0008	3.4824074399302747	0.8630088001501185	0.0655	3.4449310681905256	0.8118444219270812	0.1076	3.4542254392139213	0.74886198553927	-0.01275	3.344710358176004	0.613643605659328	0.0702	3.2469555804211394	0.5177732718496405	0.1076	3.3470941303057473	0.8828855374067264	-0.01275	3.1974045962406494	0.8066484519022094	0.0702	3.09496584731976	0.722922591896866	0.1076
664	26.575151169423844	3.2005635393391896	0.6447621880852539	0.0301	3.2277167291859286	0.6108731693993871	0.0301	3.0847261507360413	0.47223266419624366	0.129	2.968393667502108	0.35799250786802017	0.023	2.9015155293639316	0.30371681843090986	0.2179	2.926217930455345	0.2837741544779727	0.1804	2.9413570267738884	0.33781728948576023	-0.0119	3.1687816367428874	0.6736460221698058	0.0301	3.0244410521862535	0.5252708963994622	0.129	2.8923692551888234	0.39993810385815165	0.023	2.865967687843354	0.3515150835636623	0.2179	2.8423524467563217	0.37645670279241406	0.1804	2.8723319296116236	0.3749692430196385	-0.0119	3.4236617982879034	0.8293658829825816	0.0008	3.482162659030168	0.8662157969571798	0.0655	3.4404347041613335	0.8221882410908378	0.1076	3.455185702915329	0.7494985714289667	-0.01275	3.3421559685194664	0.6184367900315736	0.0702	3.2409477962302176	0.5229774212220503	0.1076	3.3490807776777136	0.8824357130827221	-0.01275	3.2014852449383353	0.8144375272914378	0.0702	3.1039663095403762	0.7377291902032338	0.1076
665	26.615173987450085	3.201110085070027	0.645722149125567	0.0301	3.2278396924080397	0.610745424442442	0.0301	3.0868229706341532	0.4749109648482303	0.129	2.97341716925536	0.35794722120817246	0.023	2.917791609283335	0.30525458188690147	0.2179	2.9389851229467387	0.2874151456738118	0.1804	2.947710382628584	0.3370838469336535	-0.0119	3.1694815231529794	0.6739981936243514	0.0301	3.026989293220053	0.5265699698662606	0.129	2.893066000235129	0.4001237772469444	0.023	2.8658742296984276	0.35248470047909874	0.2179	2.8430042439697454	0.3756974875759856	0.1804	2.8739716617870323	0.37686925486097633	-0.0119	3.4256970885262183	0.8281687301673072	0.0008	3.4806237596543133	0.867292386242786	0.0655	3.4388070999939844	0.8232609205451452	0.1076	3.454053429556711	0.7467331545429838	-0.01275	3.3400767346709097	0.6206766146690563	0.0702	3.2357952965584524	0.529273611843381	0.1076	3.350142166203573	0.8793933687312766	-0.01275	3.2081314837658446	0.8201910681524284	0.0702	3.1216121793013887	0.755963916429752	0.1076
666	26.655196805476322	3.2007114051090957	0.6458332535710126	0.0301	3.225831322920317	0.6091536768366695	0.0301	3.0868433407753417	0.4747651104751448	0.129	2.9819779510278352	0.3626201410673536	0.023	2.9383659585276516	0.31157905479118503	0.2179	2.9564035271391345	0.2973783073644848	0.1804	2.956327882835002	0.3412265813933918	-0.0119	3.168122374496354	0.673065998495064	0.0301	3.0281750433713635	0.525690000893532	0.129	2.8936757583192008	0.39911599452369523	0.023	2.8674128501362857	0.35332840134652144	0.2179	2.84394166514803	0.37528028542717917	0.1804	2.8751018428241606	0.37617770489201147	-0.0119	3.428384967129307	0.8241590216112276	0.0008	3.477474640284222	0.8640936181875966	0.0655	3.441821873830648	0.8142938347638334	0.1076	3.4527535540765943	0.7423757626724728	-0.01275	3.3377008878473977	0.6196612005270601	0.0702	3.2321837839702727	0.5327664136976717	0.1076	3.3507807575984625	0.8764753198760501	-0.01275	3.2162246329715316	0.8232831592591825	0.0702	3.139956443486905	0.7699258842244706	0.1076
